<?xml version="1.0" encoding="UTF-8"?>
<svg id="uuid-67e0a8f4-55c7-4468-9b2c-6e324f90d078" data-name="图层 1" xmlns="http://www.w3.org/2000/svg" viewBox="0 0 1120.56 324.75">
  <path d="M34.75,229.13c.74,0,1.11-.37,1.11-1.11v-125.88c0-.74-.37-1.11-1.11-1.11h-14.42c-1.48,0-1.48-2.22,0-2.22h54.53c1.48,0,1.48,2.22,0,2.22h-14.79c-.74,0-1.11.37-1.11,1.11v125.88c0,.74.37,1.11,1.11,1.11h11.83c21.99,0,43.81-11.65,51.2-31.98.55-1.29,2.22-.93,2.22.37v32.9c0,.74-.37,1.11-1.11,1.11H20.33c-1.48,0-1.48-2.4,0-2.4h14.42Z"/>
  <path d="M181.51,231.72h-39c-.74,0-1.11-.37-1.11-1.11s.37-1.11,1.11-1.11h9.61c.74,0,1.11-.37,1.11-1.11v-72.64c0-.74-.37-1.11-1.11-1.11h-9.61c-.74,0-1.11-.37-1.11-1.11s.37-1.11,1.11-1.11h27.35c.74,0,1.11.37,1.11,1.11v74.86c0,.74.37,1.11,1.11,1.11h9.43c.74,0,1.11.37,1.11,1.11s-.37,1.11-1.11,1.11ZM162.11,118.22c-6.47,0-11.27-4.99-11.27-11.46s4.81-11.83,11.27-11.83,11.28,5.36,11.28,11.83-4.81,11.46-11.28,11.46Z"/>
  <path d="M240.3,288.46c-1.66,0-1.66-2.03,0-2.03h9.43c.74,0,1.11-.37,1.11-1.11v-59.15c0-.55-.19-.93-.74-1.11-.74,0-1.11.18-1.29.37-3.14,4.25-8.5,7.39-16.64,7.39-21.99,0-38.08-20.33-38.08-40.85s17.56-41.78,39.19-41.78c5.91,0,11.46,2.22,15.71,5.91.18.37.55.37,1.11.18.55-.18.74-.55.74-.92v-2.4c0-.74.37-1.11,1.11-1.11h27.17c1.48,0,1.66,2.03,0,2.03h-9.61c-.74,0-1.11.37-1.11,1.11v130.31c0,.74.37,1.11,1.11,1.11h9.61c1.48,0,1.29,2.03,0,2.03h-38.82ZM250.83,161.85c0-.18-.19-.37-.19-.55-3.51-5.73-10.54-8.87-17.37-8.87-4.99,0-9.24,1.11-12.76,4.07-5.73,4.99-8.13,17.01-8.13,35.49s2.4,29.57,8.13,34.56c3.51,3.14,7.58,4.07,12.57,4.07,11.27,0,17.74-8.13,17.74-15.53v-53.23Z"/>
  <path d="M375.41,231.72h-26.99c-.74,0-1.11-.37-1.11-1.11v-6.84c0-.55-.19-.92-.74-1.11-.55-.18-1.11,0-1.29.55-4.44,7.21-12.2,9.98-19.59,9.98-19.04,0-30.87-9.8-30.87-29.57v-47.87c0-.74-.37-1.11-1.11-1.11h-9.43c-.74,0-1.11-.37-1.11-1.11s.37-1.11,1.11-1.11h27.35c.74,0,1.11.37,1.11,1.11v58.59c0,13.31,6.47,19.04,12.94,19.04,11.83,0,18.11-6.1,21.63-17.01v-58.41c0-.74-.37-1.11-1.11-1.11h-9.24c-.74,0-1.11-.37-1.11-1.11s.37-1.11,1.11-1.11h26.99c.74,0,1.11.37,1.11,1.11v74.86c0,.74.37,1.11,1.11,1.11h9.24c.74,0,1.11.37,1.11,1.11s-.37,1.11-1.11,1.11Z"/>
  <path d="M424.95,231.72h-39c-.74,0-1.11-.37-1.11-1.11s.37-1.11,1.11-1.11h9.61c.74,0,1.11-.37,1.11-1.11v-72.64c0-.74-.37-1.11-1.11-1.11h-9.61c-.74,0-1.11-.37-1.11-1.11s.37-1.11,1.11-1.11h27.35c.74,0,1.11.37,1.11,1.11v74.86c0,.74.37,1.11,1.11,1.11h9.43c.74,0,1.11.37,1.11,1.11s-.37,1.11-1.11,1.11ZM405.54,118.22c-6.47,0-11.28-4.99-11.28-11.46s4.81-11.83,11.28-11.83,11.27,5.36,11.27,11.83-4.81,11.46-11.27,11.46Z"/>
  <path d="M522.54,231.72h-27.17c-.74,0-1.11-.37-1.11-1.11v-3.51c0-.55-.19-.92-.74-1.11-.55-.18-.92,0-1.29.37-2.96,3.51-8.5,7.02-16.64,7.02-21.99,0-38.26-20.15-38.26-40.67s17.93-41.96,39.37-41.96c6.28,0,11.46,1.85,15.53,5.73.37.37.74.37,1.29.18.55-.18.74-.55.74-.93v-57.48c0-.74-.37-1.11-1.11-1.11h-9.43c-.74,0-1.11-.37-1.11-1.11s.37-1.11,1.11-1.11h26.99c.74,0,1.11.37,1.11,1.11v132.35c0,.74.37,1.11,1.11,1.11h9.61c.74,0,1.11.37,1.11,1.11s-.37,1.11-1.11,1.11ZM494.26,162.59c0-.18-.19-.37-.19-.55-3.14-5.73-10.54-9.06-17.37-9.06-4.99,0-9.24.93-12.76,4.07-5.36,4.99-8.13,17.01-8.13,35.68s2.77,29.39,8.13,34.38c3.51,3.14,6.47,4.07,11.65,4.07,12.76,0,18.67-7.76,18.67-15.16v-53.42Z"/>
  <path d="M597.4,229.31c.74,0,1.11-.37,1.11-1.11v-125.88c0-.74-.37-1.11-1.11-1.11h-14.42c-1.48,0-1.48-2.22,0-2.22h56.37c40.67,0,70.06,32.35,70.06,68.76,0,29.94-22.37,63.95-70.24,63.95h-56.19c-1.48,0-1.48-2.4,0-2.4h14.42ZM622.73,101.4c-.74,0-1.11.37-1.11,1.11v125.5c0,.74.37,1.11,1.11,1.11h17.74c36.97,0,42.51-32.9,42.51-63.03,0-34.01-5.73-64.69-44.36-64.69h-15.9Z"/>
  <path d="M767.28,231.72h-39c-.74,0-1.11-.37-1.11-1.11s.37-1.11,1.11-1.11h9.61c.74,0,1.11-.37,1.11-1.11v-72.64c0-.74-.37-1.11-1.11-1.11h-9.61c-.74,0-1.11-.37-1.11-1.11s.37-1.11,1.11-1.11h27.35c.74,0,1.11.37,1.11,1.11v74.86c0,.74.37,1.11,1.11,1.11h9.43c.74,0,1.11.37,1.11,1.11s-.37,1.11-1.11,1.11ZM747.87,118.22c-6.47,0-11.27-4.99-11.27-11.46s4.81-11.83,11.27-11.83,11.28,5.36,11.28,11.83-4.81,11.46-11.28,11.46Z"/>
  <path d="M861.17,166.28c-3.7,0-5.73-2.4-5.73-4.44,0-2.77,1.48-2.59,1.48-4.62s-1.48-3.14-3.14-3.14c-2.96,0-6.47-.18-10.35,7.76-.18.55-.18.92,0,1.29,3.7,4.81,5.54,10.35,5.54,16.63,0,16.63-13.86,30.13-31.24,30.13-9.06,0-17.19-4.07-22.18-9.06-.55-.55-.92-.55-1.48,0-2.96,2.22-4.99,5.36-4.99,11.46,0,10.17,4.25,12.57,16.08,12.57h22.37c24.21,0,36.97,8.87,36.97,29.76,0,23.1-25.32,35.12-45.47,35.12-25.69,0-42.7-11.64-42.7-25.51,0-9.43,6.65-19.04,16.08-22.92.55-.19.74-.55.74-1.11s-.18-.92-.74-.92c-8.13-3.14-12.94-9.61-12.94-17.93,0-10.54,5.18-16.82,13.12-22.18l.55-.74c0-.18-.18-.37-.37-.92-3.51-4.99-5.91-11.09-5.91-17.74,0-16.45,13.86-29.76,30.87-29.76,9.61,0,17.56,3.51,23.29,9.98.19.18.55.37.93.37.18,0,.55-.19.74-.55,3.51-5.73,8.32-9.8,15.16-9.8,5.73,0,9.06,3.88,9.06,9.06,0,4.25-2.59,7.21-5.73,7.21ZM832.15,241.14h-28.46c-1.29,0-3.51,0-4.81-.18-.55-.18-.37,0-.92,0-5.73,3.88-8.69,9.8-8.69,20.89,0,19.96,10.54,25.88,29.76,25.88s35.31-8.5,35.31-25.32c0-11.27-7.4-21.26-22.18-21.26ZM827.16,155.01c-2.4-2.4-5.54-2.96-9.43-2.96-3.51,0-6.47.55-8.87,2.96-3.88,3.7-5.73,11.46-5.73,24.77,0,15.34,1.85,21.07,5.73,24.77,2.4,2.77,5.36,3.14,8.87,3.14,3.88,0,7.02-.37,9.43-3.14,3.88-3.7,5.55-9.43,5.55-24.77,0-13.31-1.66-21.07-5.55-24.77Z"/>
  <path d="M909.23,231.72h-39c-.74,0-1.11-.37-1.11-1.11s.37-1.11,1.11-1.11h9.61c.74,0,1.11-.37,1.11-1.11v-72.64c0-.74-.37-1.11-1.11-1.11h-9.61c-.74,0-1.11-.37-1.11-1.11s.37-1.11,1.11-1.11h27.35c.74,0,1.11.37,1.11,1.11v74.86c0,.74.37,1.11,1.11,1.11h9.43c.74,0,1.11.37,1.11,1.11s-.37,1.11-1.11,1.11ZM889.82,118.22c-6.47,0-11.27-4.99-11.27-11.46s4.81-11.83,11.27-11.83,11.28,5.36,11.28,11.83-4.81,11.46-11.28,11.46Z"/>
  <path d="M967.46,217.3c-2.03,9.43-8.32,16.08-18.85,16.08-11.83,0-16.82-5.73-16.82-18.12v-59.52c0-.74-.37-1.11-1.11-1.11h-12.2c-.74,0-1.11-.37-1.11-1.11s.37-1.11,1.11-1.11h12.2c.74,0,1.11-.37,1.11-1.11v-17.56c0-.55.37-.92.93-1.11,6.1-.92,11.09-4.99,14.79-9.43.37-.37.74-.55,1.29-.37.55.19.74.55.74,1.11v27.36c0,.74.37,1.11,1.11,1.11h14.6c.74,0,1.11.37,1.11,1.11s-.37,1.11-1.11,1.11h-14.6c-.74,0-1.11.37-1.11,1.11v67.84c0,3.7,2.22,5.54,5.36,5.54,4.99,0,9.24-4.44,11.46-12.01.18-.74,1.29-.74,1.11.18Z"/>
  <path d="M1052.3,225.06c-.93,3.88-5.73,7.95-12.94,7.95s-12.57-3.88-14.97-9.61c-.18-.55-.55-.74-.92-.74-.55,0-.93.19-1.11.55-3.14,6.1-10.35,9.8-19.04,9.8-12.57,0-25.88-4.81-25.88-19.41,0-19.96,17.74-22.74,24.95-23.66,10.35-.93,20.52-1.48,20.52-5.73v-14.05c0-14.97-6.29-17.56-12.94-17.56-4.99,0-8.87,1.66-8.87,7.58,0,3.51,1.48,4.44,1.48,7.58,0,3.51-2.22,6.65-8.69,6.65-5.73,0-7.95-4.25-7.95-8.5,0-6.84,9.24-15.53,24.03-15.53,19.23,0,30.68,10.17,30.68,33.64v38.63c0,4.25,1.48,6.29,4.44,6.29,3.51,0,5.73-2.22,6.28-4.25.19-.55,1.11-.18.93.37ZM1022.91,190.13c0-.37-.18-.74-.55-.93-.37-.37-.74-.37-1.11-.18-4.25,2.03-10.17,1.85-15.16,3.14-6.47.92-11.09,4.44-11.09,21.44,0,12.75,4.43,16.45,11.64,16.45,9.43,0,16.27-7.95,16.27-16.27v-23.66Z"/>
  <path d="M1097.4,231.53h-38.63c-.74,0-1.11-.37-1.11-1.11s.37-1.11,1.11-1.11h9.24c.74,0,1.11-.37,1.11-1.11V98.08c0-.74-.37-1.11-1.11-1.11h-9.24c-.74,0-1.11-.37-1.11-1.11s.37-1.11,1.11-1.11h26.99c.74,0,1.11.37,1.11,1.11v132.35c0,.74.37,1.11,1.11,1.11h9.43c.74,0,1.11.37,1.11,1.11s-.37,1.11-1.11,1.11Z"/>
</svg>