<?xml version="1.0" encoding="UTF-8"?>
<svg width="60px" height="49px" viewBox="0 0 60 49" version="1.1" xmlns="http://www.w3.org/2000/svg" xmlns:xlink="http://www.w3.org/1999/xlink">
    <!-- Generator: Sketch 52.2 (67145) - http://www.bohemiancoding.com/sketch -->
    <title>LD-logo</title>
    <desc>Created with Sketch.</desc>
    <g id="页面-1" stroke="none" stroke-width="1" fill="none" fill-rule="evenodd">
        <g id="桌面端-HD" transform="translate(-690.000000, -44.000000)" fill="#000000" fill-rule="nonzero">
            <g id="LD-logo" transform="translate(690.000000, 44.000000)">
                <path d="M27.624265,30.1979543 C27.5556333,30.1979543 27.4183699,30.266586 27.384054,30.3352177 C27.2811064,30.4724811 27.2467906,30.6097446 27.2124747,30.7813239 C26.9379479,31.948063 26.4918417,33.0804863 25.942788,34.1442779 C25.462366,35.1051219 24.8446806,35.9973341 24.1240476,36.8209147 C23.1975194,37.8160746 22.099412,38.5023917 20.7954094,38.8798661 C20.0747764,39.0857613 19.3198276,39.2573406 18.5991946,39.2573406 C15.7166626,39.2916564 12.7998147,39.2573406 9.91728271,39.2573406 C9.81433514,39.2573406 9.71138757,39.2230247 9.53980828,39.2230247 C9.53980828,39.0514454 9.53980828,38.8798661 9.53980828,38.7426027 C9.53980828,34.6933316 9.53980828,30.6440604 9.53980828,26.5947893 C9.53980828,20.8640411 9.53980828,15.133293 9.53980828,9.40254486 C9.53980828,9.29959728 9.53980828,9.16233386 9.53980828,9.05938629 C9.53980828,8.92212286 9.60844,8.81917529 9.78001928,8.81917529 C9.88296686,8.81917529 9.98591443,8.81917529 10.088862,8.81917529 C11.4271804,8.81917529 13.3145526,8.81917529 14.6185551,8.81917529 L14.6185551,8.20148986 C10.0545461,8.20148986 4.564009,8.20148986 2.4382883e-15,8.20148986 L2.4382883e-15,8.81917529 C1.681477,8.81917529 3.29432229,8.81917529 5.01011514,8.81917529 C5.01011514,13.932238 5.01011514,18.976669 5.01011514,24.0554159 C5.01011514,29.0998469 5.01011514,34.1442779 5.01011514,39.2573406 C3.32863814,39.2573406 1.681477,39.2573406 0.0343158571,39.2573406 C0.0343158571,39.4632357 0.0343158571,39.634815 0.0343158571,39.8407101 C0.205895143,39.8407101 0.343158571,39.8407101 0.480422,39.8407101 C9.43686071,39.8407101 18.9080373,39.8407101 27.864476,39.8407101 L27.864476,30.3695336 C27.8301601,30.3352177 27.7958443,30.2322701 27.624265,30.1979543 Z" id="路径"></path>
                <rect id="矩形" x="33.4922766" y="2.4382883e-15" width="1.02947571" height="48.1108317"></rect>
                <path d="M59.7095914,20.6924619 C59.7095914,20.658146 59.6752756,20.417935 59.6752756,20.417935 C59.572328,20.0404606 59.5036963,19.6629861 59.4007487,19.2855117 C58.9203267,17.535403 58.131062,15.9568736 57.0672704,14.4812917 C56.449585,13.6233953 55.728952,12.8684464 54.9053714,12.1821293 C54.1504226,11.5644439 53.326842,11.0153901 52.5032614,10.5349681 C51.5767333,10.0202303 50.5815734,9.57412414 49.5520977,9.23096557 C48.6598854,8.92212286 47.7676731,8.647596 46.8754609,8.51033257 C46.1548279,8.407385 45.4341949,8.30443743 44.7478777,8.23580571 C44.2674557,8.20148986 43.7870337,8.167174 43.3066117,8.167174 C42.517347,8.13285814 41.6937664,8.09854229 40.9045017,8.09854229 C40.4240797,8.09854229 39.9093419,8.13285814 39.4289199,8.167174 C38.9828137,8.20148986 38.5710234,8.20148986 38.1249173,8.23580571 C38.193549,8.78485943 38.193549,8.81917529 38.7082869,8.81917529 C39.2916564,8.81917529 39.9093419,8.75054357 40.4927114,8.75054357 C41.8653457,8.75054357 43.2722959,8.75054357 44.6449301,8.99075457 C45.2969314,9.128018 45.9146169,9.23096557 46.5323023,9.40254486 C47.321567,9.64275586 48.0765159,9.95159857 48.7971489,10.329073 C49.6550453,10.809495 50.44431,11.3585487 51.0963113,12.0448659 C52.125787,13.0743416 52.84642,14.2753966 53.3954737,15.613715 C53.9788433,17.054981 54.3220019,18.5991946 54.527897,20.1434081 C54.527897,20.2806716 54.5622129,20.6924619 54.5622129,20.6924619 C54.8710556,24.1926793 54.6308446,26.903632 54.6308446,26.903632 C54.6308446,26.903632 54.5965287,27.143843 54.5965287,27.2124747 C54.4935811,28.0360553 54.3906336,28.8596359 54.2190543,29.6832164 C54.0131591,30.7126921 53.7043164,31.707852 53.2582103,32.668696 C52.9493676,33.3206973 52.606209,33.9383827 52.2973663,34.5560681 C51.885576,35.3453329 51.3365223,36.03165 50.7188369,36.6493354 C49.5177819,37.7817587 48.1108317,38.5367076 46.5323023,38.9828137 C45.4685107,39.2573406 44.3704033,39.3602881 43.3066117,39.4289199 C42.277136,39.4975516 41.2133444,39.4632357 40.1495529,39.4632357 C39.5661833,39.4632357 38.9828137,39.4632357 38.3651283,39.4632357 C38.193549,39.875026 38.2278649,39.9436577 38.673971,39.9779736 C38.9828137,40.0122894 39.2573406,40.0466053 39.5661833,40.0466053 C41.5221871,40.0809211 43.4438751,40.115237 45.399879,39.9779736 C46.3264071,39.9093419 47.2186194,39.7720784 48.1108317,39.5661833 C49.2775709,39.2916564 50.4099941,38.8455503 51.4737857,38.2964966 C52.3316821,37.8503904 53.1552627,37.3356526 53.9788433,36.752283 C55.1798983,35.9287024 56.1750581,34.8992267 57.0329546,33.7668034 C57.7535876,32.7716436 58.371273,31.7421679 58.851695,30.6097446 C59.2978011,29.5116371 59.6066439,28.4135297 59.812539,27.2811064 C59.8468549,27.0752113 59.8468549,26.9379479 59.8468549,26.9379479 C60.2586451,23.8152049 59.7095914,20.6924619 59.7095914,20.6924619 Z" id="路径"></path>
            </g>
        </g>
    </g>
</svg>